<svg width="600" height="600" viewBox="0 0 600 600" xmlns="http://www.w3.org/2000/svg">
  <defs>
    <linearGradient id="priceGrad" x1="0%" y1="0%" x2="100%" y2="100%">
      <stop offset="0%" style="stop-color:#F59E0B;stop-opacity:1" />
      <stop offset="100%" style="stop-color:#D97706;stop-opacity:1" />
    </linearGradient>
  </defs>
  
  <!-- Background -->
  <rect width="600" height="600" fill="#fffbeb"/>
  
  <!-- Price cards -->
  <rect x="80" y="150" width="150" height="300" rx="15" fill="white" stroke="#e2e8f0" stroke-width="2"/>
  <rect x="80" y="150" width="150" height="60" rx="15" fill="#f3f4f6"/>
  <rect x="100" y="175" width="110" height="15" rx="7" fill="#d1d5db"/>
  
  <rect x="270" y="120" width="150" height="360" rx="15" fill="white" stroke="url(#priceGrad)" stroke-width="3"/>
  <rect x="270" y="120" width="150" height="70" rx="15" fill="url(#priceGrad)"/>
  <rect x="290" y="150" width="110" height="15" rx="7" fill="white" opacity="0.9"/>
  <circle cx="345" cy="240" r="40" fill="url(#priceGrad)" opacity="0.1"/>
  <text x="345" y="255" font-family="Arial" font-size="40" font-weight="bold" text-anchor="middle" fill="url(#priceGrad)">★</text>
  
  <rect x="460" y="150" width="150" height="300" rx="15" fill="white" stroke="#e2e8f0" stroke-width="2"/>
  <rect x="460" y="150" width="150" height="60" rx="15" fill="#f3f4f6"/>
  <rect x="480" y="175" width="110" height="15" rx="7" fill="#d1d5db"/>
  
  <!-- Price tags -->
  <circle cx="155" cy="270" r="35" fill="#4F46E5" opacity="0.1"/>
  <circle cx="345" cy="310" r="45" fill="url(#priceGrad)" opacity="0.2"/>
  <circle cx="535" cy="270" r="35" fill="#10B981" opacity="0.1"/>
  
  <!-- Feature checkmarks -->
  <circle cx="120" cy="330" r="8" fill="#10B981"/>
  <circle cx="120" cy="360" r="8" fill="#10B981"/>
  <circle cx="120" cy="390" r="8" fill="#10B981"/>
  
  <circle cx="310" cy="370" r="8" fill="#10B981"/>
  <circle cx="310" cy="400" r="8" fill="#10B981"/>
  <circle cx="310" cy="430" r="8" fill="#10B981"/>
  
  <circle cx="500" cy="330" r="8" fill="#10B981"/>
  <circle cx="500" cy="360" r="8" fill="#10B981"/>
  <circle cx="500" cy="390" r="8" fill="#10B981"/>
</svg>
