<svg width="180" height="48" viewBox="0 0 180 48" fill="none" xmlns="http://www.w3.org/2000/svg">
  <defs>
    <linearGradient id="logoGradient" x1="0%" y1="0%" x2="100%" y2="100%">
      <stop offset="0%" style="stop-color:#008060;stop-opacity:1" />
      <stop offset="100%" style="stop-color:#58cc02;stop-opacity:1" />
    </linearGradient>
  </defs>
  
  <!-- S Icon -->
  <path d="M24 8C17.373 8 12 13.373 12 20C12 23.5 13.5 26.6 15.9 28.8L20.5 33.4C22.7 35.6 26 36 28.6 34.4C31.2 32.8 32 29.6 30.4 27L25.8 22.4C24.6 21.2 24.6 19.2 25.8 18C27 16.8 29 16.8 30.2 18L34.8 22.6C36.4 24.2 39 24.6 41 23.4C43 22.2 44 19.8 43 17.6C40.8 12.2 35.2 8 28.6 8H24Z" fill="url(#logoGradient)"/>
  <path d="M24 40C30.627 40 36 34.627 36 28C36 24.5 34.5 21.4 32.1 19.2L27.5 14.6C25.3 12.4 22 12 19.4 13.6C16.8 15.2 16 18.4 17.6 21L22.2 25.6C23.4 26.8 23.4 28.8 22.2 30C21 31.2 19 31.2 17.8 30L13.2 25.4C11.6 23.8 9 23.4 7 24.6C5 25.8 4 28.2 5 30.4C7.2 35.8 12.8 40 19.4 40H24Z" fill="url(#logoGradient)"/>
  
  <!-- SENKMER Text -->
  <text x="54" y="32" font-family="'Inter', 'SF Pro Display', -apple-system, sans-serif" font-size="24" font-weight="800" fill="#202223">
    SENKMER
  </text>
</svg>
